<svg width="114" height="131" viewBox="0 0 114 131" fill="none" xmlns="http://www.w3.org/2000/svg">
<rect x="83.6807" y="9.13867" width="30" height="98" rx="12" fill="#EEEEEE"/>
<path d="M97.1325 18.945L102.317 15.945C102.861 15.625 103.341 15.585 103.757 15.825C104.189 16.065 104.405 16.505 104.405 17.145V31.065C104.405 31.481 104.301 31.929 104.093 32.409C103.901 32.889 103.645 33.337 103.325 33.753C103.021 34.153 102.685 34.457 102.317 34.665L97.1325 37.665C96.5725 37.985 96.0845 38.025 95.6685 37.785C95.2525 37.545 95.0445 37.105 95.0445 36.465V22.545C95.0445 22.113 95.1405 21.665 95.3325 21.201C95.5245 20.721 95.7805 20.281 96.1005 19.881C96.4205 19.465 96.7645 19.153 97.1325 18.945ZM97.1325 35.265L102.317 32.265V18.345L97.1325 21.345V35.265ZM102.317 18.345V32.265L100.229 31.065V17.145L102.317 18.345ZM102.317 32.265L97.1325 35.265L95.0445 34.065L100.229 31.065L102.317 32.265ZM103.781 15.825C103.349 15.585 102.861 15.625 102.317 15.945L97.1325 18.945C96.7645 19.153 96.4205 19.465 96.1005 19.881C95.7805 20.281 95.5245 20.721 95.3325 21.201C95.1405 21.665 95.0445 22.113 95.0445 22.545V36.465C95.0445 37.105 95.2525 37.545 95.6685 37.785L93.5805 36.585C93.1645 36.345 92.9565 35.905 92.9565 35.265V21.345C92.9565 20.913 93.0525 20.465 93.2445 20.001C93.4365 19.521 93.6925 19.081 94.0125 18.681C94.3325 18.265 94.6765 17.953 95.0445 17.745L100.229 14.745C100.789 14.425 101.277 14.385 101.693 14.625L103.781 15.825Z" fill="black"/>
<path d="M98.6685 43.3395C99.2285 43.0195 99.7165 42.9795 100.132 43.2195C100.548 43.4595 100.756 43.8995 100.756 44.5395V56.5395L103.876 54.7395V40.3395L105.964 39.1395V55.9395L100.756 58.9395C100.212 59.2595 99.7245 59.2995 99.2925 59.0595C98.8765 58.8195 98.6685 58.3795 98.6685 57.7395V45.7395L95.5725 47.5395V61.9395L93.4845 63.1395V46.3395L98.6685 43.3395ZM105.964 39.1395L103.876 40.3395L101.788 39.1395L103.876 37.9395L105.964 39.1395ZM103.876 40.3395V54.7395L101.788 53.5395V39.1395L103.876 40.3395ZM103.876 54.7395L100.756 56.5395L98.6685 55.3395L101.788 53.5395L103.876 54.7395ZM98.6685 45.7395V57.7395C98.6685 58.3795 98.8765 58.8195 99.2925 59.0595L97.2285 57.8595C96.8125 57.6195 96.6045 57.1795 96.6045 56.5395V44.5395L98.6685 45.7395ZM100.132 43.2195C99.7165 42.9795 99.2285 43.0195 98.6685 43.3395L93.4845 46.3395L91.3965 45.1395L96.6045 42.1395C97.1485 41.8195 97.6285 41.7795 98.0445 42.0195L100.132 43.2195ZM93.4845 46.3395V63.1395L91.3965 61.9395V45.1395L93.4845 46.3395Z" fill="black"/>
<g filter="url(#filter0_i_645_7029)">
<rect x="83.6807" y="67.1387" width="30" height="40" rx="12" fill="#FD6F00"/>
</g>
<mask id="mask0_645_7029" style="mask-type:alpha" maskUnits="userSpaceOnUse" x="11" y="56" width="88" height="75">
<rect x="11.6797" y="92.0938" width="75.6534" height="43.7015" transform="rotate(-28.0158 11.6797 92.0938)" fill="#D9D9D9"/>
</mask>
<g mask="url(#mask0_645_7029)">
<path fill-rule="evenodd" clip-rule="evenodd" d="M78.7807 33.4782C78.7807 30.9715 77.9347 29.2482 76.2427 28.3082L68.1587 23.6082C66.5293 22.6682 64.618 22.8249 62.4247 24.0782L29.9007 42.8782C28.4593 43.6929 27.112 44.9149 25.8587 46.5442C24.6053 48.1109 23.6027 49.8342 22.8507 51.7142C22.0987 53.5315 21.7227 55.2862 21.7227 56.9782V105.388H29.9007H38.0787V56.9782L42.1207 54.6282L50.2047 49.9282V111.139L58.3827 105.388V45.2282L62.4247 42.8963V105.388H70.6027H78.7807V33.4782Z" fill="#EEEEEE"/>
<path d="M42.1207 54.6282L50.2047 49.9282V111.139L42.1207 105.388V54.6282Z" fill="#EEEEEE"/>
</g>
<mask id="mask1_645_7029" style="mask-type:alpha" maskUnits="userSpaceOnUse" x="20" y="-1" width="76" height="81">
<path d="M21.995 30.6383L75.5193 -0.00157447L95.3459 37.9274L20.9949 79.6385L21.995 30.6383Z" fill="#D9D9D9"/>
</mask>
<g mask="url(#mask1_645_7029)">
<path d="M38.0787 31.5787L70.6027 12.7787C72.7333 11.5253 74.6133 11.3687 76.2427 12.3087C77.9347 13.2487 78.7807 14.972 78.7807 17.4787V77.6387L70.6027 82.3387V22.1787L58.3827 29.2287V89.3887L50.2047 94.0887V33.9287L38.0787 40.9787V101.139L29.9007 105.839V45.6787C29.9007 43.9867 30.2767 42.232 31.0287 40.4147C31.7807 38.5347 32.7833 36.8113 34.0367 35.2447C35.29 33.6153 36.6373 32.3933 38.0787 31.5787ZM70.6027 22.1787V82.3387L62.4247 77.6387V17.4787L70.6027 22.1787ZM50.2047 33.9287V94.0887L42.1207 89.3887V29.2287L50.2047 33.9287ZM76.2427 12.3087C74.6133 11.3687 72.7333 11.5253 70.6027 12.7787L38.0787 31.5787C36.6373 32.3933 35.29 33.6153 34.0367 35.2447C32.7833 36.8113 31.7807 38.5347 31.0287 40.4147C30.2767 42.232 29.9007 43.9867 29.9007 45.6787V105.839L21.7227 101.139V40.9787C21.7227 39.2867 22.0987 37.532 22.8507 35.7147C23.6027 33.8347 24.6053 32.1113 25.8587 30.5447C27.112 28.9153 28.4593 27.6933 29.9007 26.8787L62.4247 8.07867C64.618 6.82534 66.5293 6.66867 68.1587 7.60867L76.2427 12.3087Z" fill="#EEEEEE"/>
</g>
<defs>
<filter id="filter0_i_645_7029" x="83.6807" y="67.1387" width="34" height="44" filterUnits="userSpaceOnUse" color-interpolation-filters="sRGB">
<feFlood flood-opacity="0" result="BackgroundImageFix"/>
<feBlend mode="normal" in="SourceGraphic" in2="BackgroundImageFix" result="shape"/>
<feColorMatrix in="SourceAlpha" type="matrix" values="0 0 0 0 0 0 0 0 0 0 0 0 0 0 0 0 0 0 127 0" result="hardAlpha"/>
<feOffset dx="4" dy="4"/>
<feGaussianBlur stdDeviation="4.5"/>
<feComposite in2="hardAlpha" operator="arithmetic" k2="-1" k3="1"/>
<feColorMatrix type="matrix" values="0 0 0 0 0 0 0 0 0 0 0 0 0 0 0 0 0 0 0.25 0"/>
<feBlend mode="normal" in2="shape" result="effect1_innerShadow_645_7029"/>
</filter>
</defs>
</svg>
